<?xml version="1.0"?>
<svg xmlns="http://www.w3.org/2000/svg" xmlns:xlink="http://www.w3.org/1999/xlink" xmlns:svgjs="http://svgjs.com/svgjs" version="1.1" width="512" height="512" x="0" y="0" viewBox="0 0 64 64" style="enable-background:new 0 0 512 512" xml:space="preserve" class=""><g><path xmlns="http://www.w3.org/2000/svg" d="m44 23v-15h-24v15a1 1 0 0 0 1 1h22a1 1 0 0 0 1-1zm-15.293-4.707a1 1 0 1 1 -1.414 1.414l-3-3a1 1 0 0 1 0-1.414l3-3a1 1 0 0 1 1.414 1.414l-2.293 2.293zm5.263-6.05-2 8a1 1 0 0 1 -.97.757.976.976 0 0 1 -.244-.03 1 1 0 0 1 -.727-1.213l2-8a1 1 0 0 1 1.94.486zm5.737 4.464-3 3a1 1 0 0 1 -1.414-1.414l2.293-2.293-2.293-2.293a1 1 0 0 1 1.414-1.414l3 3a1 1 0 0 1 0 1.414z" fill="#25aae1" data-original="#000000" style="" class=""/><path xmlns="http://www.w3.org/2000/svg" d="m44 5a1 1 0 0 0 -1-1h-22a1 1 0 0 0 -1 1v1h24z" fill="#25aae1" data-original="#000000" style="" class=""/><path xmlns="http://www.w3.org/2000/svg" d="m4 41v1h24v-1a1 1 0 0 0 -1-1h-22a1 1 0 0 0 -1 1z" fill="#25aae1" data-original="#000000" style="" class=""/><path xmlns="http://www.w3.org/2000/svg" d="m4 59a1 1 0 0 0 1 1h22a1 1 0 0 0 1-1v-15h-24zm15.293-9.293a1 1 0 0 1 1.414-1.414l3 3a1 1 0 0 1 0 1.414l-3 3a1 1 0 0 1 -1.414-1.414l2.293-2.293zm-5.263 6.05 2-8a1 1 0 0 1 1.94.486l-2 8a1 1 0 0 1 -.97.757.976.976 0 0 1 -.244-.03 1 1 0 0 1 -.726-1.213zm-5.737-4.464 3-3a1 1 0 0 1 1.414 1.414l-2.293 2.293 2.293 2.293a1 1 0 1 1 -1.414 1.414l-3-3a1 1 0 0 1 0-1.414z" fill="#25aae1" data-original="#000000" style="" class=""/><path xmlns="http://www.w3.org/2000/svg" d="m37 59a1 1 0 0 0 1 1h22a1 1 0 0 0 1-1v-15h-24zm15.293-9.293a1 1 0 0 1 1.414-1.414l3 3a1 1 0 0 1 0 1.414l-3 3a1 1 0 0 1 -1.414-1.414l2.293-2.293zm-5.263 6.05 2-8a1 1 0 1 1 1.94.486l-2 8a1 1 0 0 1 -.97.757.976.976 0 0 1 -.244-.03 1 1 0 0 1 -.726-1.213zm-5.737-4.464 3-3a1 1 0 0 1 1.414 1.414l-2.293 2.293 2.293 2.293a1 1 0 1 1 -1.414 1.414l-3-3a1 1 0 0 1 0-1.414z" fill="#25aae1" data-original="#000000" style="" class=""/><path xmlns="http://www.w3.org/2000/svg" d="m60 40h-22a1 1 0 0 0 -1 1v1h24v-1a1 1 0 0 0 -1-1z" fill="#25aae1" data-original="#000000" style="" class=""/><path xmlns="http://www.w3.org/2000/svg" d="m51 34a3 3 0 0 0 -3-3h-15v-5h-2v5h-13a3 3 0 0 0 -3 3v4h2v-4a1 1 0 0 1 1-1h30a1 1 0 0 1 1 1v4h2z" fill="#25aae1" data-original="#000000" style="" class=""/></g></svg>
