<?xml version="1.0"?>
<svg xmlns="http://www.w3.org/2000/svg" xmlns:xlink="http://www.w3.org/1999/xlink" xmlns:svgjs="http://svgjs.com/svgjs" version="1.1" width="512" height="512" x="0" y="0" viewBox="0 0 464 464.32" style="enable-background:new 0 0 512 512" xml:space="preserve" class=""><g><path xmlns="http://www.w3.org/2000/svg" d="m136.160156 448.320312v16h128v-16zm0 0" fill="#25aae1" data-original="#000000" style="" class=""/><path xmlns="http://www.w3.org/2000/svg" d="m152.160156 384.320312h96v48h-96zm0 0" fill="#25aae1" data-original="#000000" style="" class=""/><path xmlns="http://www.w3.org/2000/svg" d="m392.320312 80.320312h-77.679687c16.417969 10.867188 24.5625 30.640626 20.558594 49.917969-5.125 22.59375-25.394531 38.492188-48.558594 38.082031h-6.480469v-16h6.480469c15.558594.40625 29.277344-10.140624 32.878906-25.28125 1.996094-9.515624-.414062-19.425781-6.558593-26.960937-5.992188-7.382813-14.972657-11.695313-24.480469-11.757813-2.542969.347657-5.09375-.542968-6.867188-2.394531-1.777343-1.851562-2.554687-4.441406-2.09375-6.964843.390625-2.195313.601563-4.414063.640625-6.640626 0-17.671874-14.328125-32-32-32-2.226562.035157-4.445312.25-6.640625.640626-2.796875.492187-5.644531-.507813-7.519531-2.640626-1.507812-1.738281-2.179688-4.046874-1.839844-6.320312 0-17.671875-14.328125-32-32-32s-32 14.328125-32 32c.347656 2.539062-.539062 5.09375-2.394531 6.867188-1.851563 1.773437-4.441406 2.550781-6.964844 2.09375-2.195312-.390626-4.414062-.605469-6.640625-.640626-17.671875 0-32 14.328126-32 32 .035156 2.226563.25 4.445313.640625 6.640626.460938 2.523437-.320312 5.113281-2.09375 6.964843-1.773437 1.851563-4.328125 2.742188-6.867187 2.394531-9.613282.101563-18.671875 4.511719-24.683594 12.011719-6.015625 7.5-8.347656 17.304688-6.355469 26.707031 3.601563 15.140626 17.320313 25.6875 32.878907 25.28125h6.480468v16h-6.480468c-23.164063.410157-43.4375-15.488281-48.558594-38.082031-4.003906-19.277343 4.140625-39.050781 20.558594-49.917969h-77.679688c-4.328125.007813-7.832031 3.511719-7.839844 7.839844v272.320313c.007813 4.324219 3.511719 7.832031 7.839844 7.839843h384.320312c4.324219-.007812 7.832032-3.515624 7.839844-7.839843v-272.320313c-.007812-4.328125-3.515625-7.832031-7.839844-7.839844zm-169.121093 83.679688 8.960937 9.039062v-60.71875h16v60.71875l8.960938-9.039062 11.359375 11.359375-22.640625 22.640625c-3.15625 3.09375-8.207032 3.09375-11.359375 0l-22.640625-22.640625zm-68.71875-49.359375c3.144531-3.121094 8.214843-3.121094 11.359375 0l22.640625 22.640625-11.359375 11.359375-8.960938-9.039063v60.71875h-16v-60.71875l-8.960937 9.039063-11.359375-11.359375zm229.679687 205.679687h-368v-16h368zm0 0" fill="#25aae1" data-original="#000000" style="" class=""/></g></svg>
