<?xml version="1.0"?>
<svg xmlns="http://www.w3.org/2000/svg" xmlns:xlink="http://www.w3.org/1999/xlink" xmlns:svgjs="http://svgjs.com/svgjs" version="1.1" width="512" height="512" x="0" y="0" viewBox="0 0 64 64" style="enable-background:new 0 0 512 512" xml:space="preserve" class=""><g><g xmlns="http://www.w3.org/2000/svg"><path d="m33.532 23h-3.532c-2.414 0-4.434-1.721-4.899-4h-21.101c-.551 0-1 .449-1 1v5h32.198zm-26.532 0h-2v-2h2zm4 0h-2v-2h2zm4 0h-2v-2h2z" fill="#25aae1" data-original="#000000" style=""/><path d="m36 53c-.551 0-1 .448-1 1v2c0 .552.449 1 1 1h16c.551 0 1-.448 1-1v-2c0-.552-.449-1-1-1z" fill="#25aae1" data-original="#000000" style=""/><path d="m38 39h12v2h-12z" fill="#25aae1" data-original="#000000" style=""/><path d="m36 43c-.551 0-1 .448-1 1v2c0 .552.449 1 1 1h16c.551 0 1-.448 1-1v-2c0-.552-.449-1-1-1z" fill="#25aae1" data-original="#000000" style=""/><path d="m38 49h12v2h-12z" fill="#25aae1" data-original="#000000" style=""/><path d="m26.941 39c-.193-1.733-.88-3.316-1.916-4.611l-4.611 4.611z" fill="#25aae1" data-original="#000000" style=""/><path d="m12.389 47.025c1.54 1.233 3.489 1.975 5.611 1.975 4.624 0 8.442-3.507 8.941-8h-8.527z" fill="#25aae1" data-original="#000000" style=""/><path d="m16.586 40-5.611-5.611c-1.233 1.54-1.975 3.489-1.975 5.611s.742 4.071 1.975 5.611z" fill="#25aae1" data-original="#000000" style=""/><path d="m23.611 32.975c-1.54-1.233-3.489-1.975-5.611-1.975s-4.071.742-5.611 1.975l5.611 5.611z" fill="#25aae1" data-original="#000000" style=""/><path d="m39.957 29c-.906 0-1.758-.399-2.338-1.095l-.754-.905h-33.865v33c0 .552.449 1 1 1h52c.551 0 1-.448 1-1v-33h-14.196c-.428 1.163-1.537 2-2.847 2zm-21.957 0c6.065 0 11 4.935 11 11s-4.935 11-11 11-11-4.935-11-11 4.935-11 11-11zm-13 24h2v2h-2zm6 6h-6v-2h6zm20 0h-18v-2h18zm0-4h-22v-2h22zm24-21v2c0 1.654-1.346 3-3 3v2c1.654 0 3 1.346 3 3v2c0 1.654-1.346 3-3 3v2c1.654 0 3 1.346 3 3v2c0 1.654-1.346 3-3 3h-16c-1.654 0-3-1.346-3-3v-2c0-1.654 1.346-3 3-3v-2c-1.654 0-3-1.346-3-3v-2c0-1.654 1.346-3 3-3v-2c-1.654 0-3-1.346-3-3v-2c0-1.654 1.346-3 3-3h16c1.654 0 3 1.346 3 3z" fill="#25aae1" data-original="#000000" style=""/><path d="m44 9h-3v2h3c.551 0 1-.449 1-1s-.449-1-1-1z" fill="#25aae1" data-original="#000000" style=""/><path d="m58 3h-28c-1.654 0-3 1.346-3 3v12c0 1.654 1.346 3 3 3h4.468l4.687 5.625c.199.238.491.375.802.375.575 0 1.043-.468 1.043-1.043v-4.957h17c1.654 0 3-1.346 3-3v-12c0-1.654-1.346-3-3-3zm-25 12c1.103 0 2-.897 2-2h2c0 2.206-1.794 4-4 4s-4-1.794-4-4v-2c0-2.206 1.794-4 4-4s4 1.794 4 4h-2c0-1.103-.897-2-2-2s-2 .897-2 2v2c0 1.103.897 2 2 2zm14-1v3h-2v-3c0-.551-.449-1-1-1h-3v4h-2v-10h5c1.654 0 3 1.346 3 3 0 .771-.301 1.468-.78 2 .479.532.78 1.229.78 2zm12 3h-2v-5.838l-1.279 3.838h-3.441l-1.28-3.838v5.838h-2v-10h2.721l2 6h.559l2-6h2.72z" fill="#25aae1" data-original="#000000" style=""/><path d="m43 23h14v2h-14z" fill="#25aae1" data-original="#000000" style=""/><path d="m35 34v2c0 .552.449 1 1 1h16c.551 0 1-.448 1-1v-2c0-.552-.449-1-1-1h-16c-.551 0-1 .448-1 1z" fill="#25aae1" data-original="#000000" style=""/></g></g></svg>
