<?xml version="1.0"?>
<svg xmlns="http://www.w3.org/2000/svg" xmlns:xlink="http://www.w3.org/1999/xlink" xmlns:svgjs="http://svgjs.com/svgjs" version="1.1" width="512" height="512" x="0" y="0" viewBox="0 0 512 512" style="enable-background:new 0 0 512 512" xml:space="preserve" class=""><g>
<g xmlns="http://www.w3.org/2000/svg">
	<g>
		<path d="M339.004,10.233c-13.652-13.637-35.865-13.64-49.518,0L117.539,181.996h113.049L370.694,41.889L339.004,10.233z" fill="#25aae1" data-original="#000000" style=""/>
	</g>
</g>
<g xmlns="http://www.w3.org/2000/svg">
	<g>
		<path d="M501.736,172.792L391.918,63.091L273.014,181.996H395c35.841,0,65,29.159,65,65v16.996l41.736-41.692    c6.619-6.611,10.264-15.402,10.264-24.754C512,188.194,508.355,179.403,501.736,172.792z" fill="#25aae1" data-original="#000000" style=""/>
	</g>
</g>
<g xmlns="http://www.w3.org/2000/svg">
	<g>
		<path d="M272.141,395.853c-3.898-3.898-9.02-5.848-14.141-5.848c-5.122,0-10.243,1.949-14.142,5.848    c-7.798,7.798-7.798,20.487,0,28.285c7.797,7.798,20.485,7.797,28.284-0.001C279.939,416.34,279.939,403.651,272.141,395.853z" fill="#25aae1" data-original="#000000" style=""/>
	</g>
</g>
<g xmlns="http://www.w3.org/2000/svg">
	<g>
		<path d="M342.141,395.853c-3.898-3.898-9.019-5.848-14.141-5.848s-10.243,1.949-14.143,5.849    c-7.797,7.797-7.797,20.486,0.001,28.284c7.795,7.798,20.485,7.797,28.284-0.001C349.939,416.34,349.939,403.651,342.141,395.853z    " fill="#25aae1" data-original="#000000" style=""/>
	</g>
</g>
<g xmlns="http://www.w3.org/2000/svg">
	<g>
		<path d="M395,211.996H35c-19.299,0-35,15.701-35,35v230c0,19.299,15.701,35,35,35h360c19.299,0,35-15.701,35-35v-230    C430,227.697,414.299,211.996,395,211.996z M290,291.996h80v30h-80V291.996z M69,291.996h178v30H69V291.996z M363.356,445.351    c-9.748,9.747-22.553,14.62-35.356,14.62c-12.652,0-25.297-4.766-35-14.281c-9.704,9.515-22.349,14.282-35,14.282    c-12.804,0-25.608-4.874-35.355-14.621c-19.495-19.495-19.495-51.216,0-70.711c19.379-19.378,50.832-19.486,70.355-0.339    c19.525-19.147,50.977-19.037,70.355,0.338l0.001,0.001C382.85,394.135,382.85,425.856,363.356,445.351z" fill="#25aae1" data-original="#000000" style=""/>
	</g>
</g>
<g xmlns="http://www.w3.org/2000/svg">
</g>
<g xmlns="http://www.w3.org/2000/svg">
</g>
<g xmlns="http://www.w3.org/2000/svg">
</g>
<g xmlns="http://www.w3.org/2000/svg">
</g>
<g xmlns="http://www.w3.org/2000/svg">
</g>
<g xmlns="http://www.w3.org/2000/svg">
</g>
<g xmlns="http://www.w3.org/2000/svg">
</g>
<g xmlns="http://www.w3.org/2000/svg">
</g>
<g xmlns="http://www.w3.org/2000/svg">
</g>
<g xmlns="http://www.w3.org/2000/svg">
</g>
<g xmlns="http://www.w3.org/2000/svg">
</g>
<g xmlns="http://www.w3.org/2000/svg">
</g>
<g xmlns="http://www.w3.org/2000/svg">
</g>
<g xmlns="http://www.w3.org/2000/svg">
</g>
<g xmlns="http://www.w3.org/2000/svg">
</g>
</g></svg>
