<?xml version="1.0"?>
<svg xmlns="http://www.w3.org/2000/svg" xmlns:xlink="http://www.w3.org/1999/xlink" xmlns:svgjs="http://svgjs.com/svgjs" version="1.1" width="512" height="512" x="0" y="0" viewBox="0 0 512 512" style="enable-background:new 0 0 512 512" xml:space="preserve" class=""><g><g xmlns="http://www.w3.org/2000/svg" id="solid"><path d="M400.383,204.877l6.772,13.545A7.994,7.994,0,0,1,408,222v56h16V222a7.994,7.994,0,0,1,.845-3.578l6.772-13.545L430.242,198H401.758Z" fill="#25aae1" data-original="#000000" style=""/><path d="M232,222a30.423,30.423,0,0,0,8.971,21.656l1.373,1.373a30.624,30.624,0,0,0,43.312,0l1.373-1.373A30.423,30.423,0,0,0,296,222V201.739a47.889,47.889,0,0,1-64,0Z" fill="#25aae1" data-original="#000000" style=""/><path d="M264,192.359l3.647-8.5A45.04,45.04,0,0,0,270.57,174H257.431a45.106,45.106,0,0,0,2.923,9.861Z" fill="#25aae1" data-original="#000000" style=""/><path d="M294.987,158a32.107,32.107,0,0,0-13.854-19.006l1.22,2.844A61.17,61.17,0,0,1,286.744,158Z" fill="#25aae1" data-original="#000000" style=""/><path d="M294.987,174h-8.243a61.115,61.115,0,0,1-4.39,16.156l-1.222,2.851A32.113,32.113,0,0,0,294.987,174Z" fill="#25aae1" data-original="#000000" style=""/><path d="M264,139.641l-3.647,8.5A45.04,45.04,0,0,0,257.43,158h13.139a45.106,45.106,0,0,0-2.923-9.861Z" fill="#25aae1" data-original="#000000" style=""/><path d="M288.478,398H223.522a65.446,65.446,0,0,1-18.835,38.628L203.313,438H308.687l-1.374-1.372A65.446,65.446,0,0,1,288.478,398Z" fill="#25aae1" data-original="#000000" style=""/><path d="M175.99,454,176,470H336V454H175.99Z" fill="#25aae1" data-original="#000000" style=""/><path d="M246.868,138.993A32.113,32.113,0,0,0,233.013,158h8.243a61.115,61.115,0,0,1,4.39-16.156Z" fill="#25aae1" data-original="#000000" style=""/><path d="M32,368a14.015,14.015,0,0,0,14,14H466a14.015,14.015,0,0,0,14-14V350H32Z" fill="#25aae1" data-original="#000000" style=""/><path d="M246.867,193.006l-1.22-2.844A61.17,61.17,0,0,1,241.256,174h-8.243A32.111,32.111,0,0,0,246.867,193.006Z" fill="#25aae1" data-original="#000000" style=""/><path d="M192,223.58a65.011,65.011,0,0,0,19.167,46.273l18.49,18.49A8,8,0,0,1,232,294v40h16V302a8,8,0,0,1,8-8h24v16H264v24h32V294a8,8,0,0,1,2.343-5.657l18.49-18.49A65.011,65.011,0,0,0,336,223.58a65.833,65.833,0,0,0-24-50.633V222a46.325,46.325,0,0,1-13.656,32.971l-1.373,1.373a46.631,46.631,0,0,1-65.942,0l-1.373-1.373A46.325,46.325,0,0,1,216,222V172.947A65.83,65.83,0,0,0,192,223.58Z" fill="#25aae1" data-original="#000000" style=""/><path d="M466,48H46A14.015,14.015,0,0,0,32,62V86H480V62A14.015,14.015,0,0,0,466,48ZM72,78H56V62H72Zm32,0H88V62h16Zm32,0H120V62h16Zm328,0H448V62h16Z" fill="#25aae1" data-original="#000000" style=""/><path d="M32,334H216V297.313l-16.147-16.146A80.906,80.906,0,0,1,176,223.58a81.849,81.849,0,0,1,39.539-69.833l2.474-1.484a47.993,47.993,0,0,1,91.974,0l2.474,1.485A81.846,81.846,0,0,1,352,223.58a80.906,80.906,0,0,1-23.853,57.587L312,297.313V334h72V321.313l-5.657-5.656A8,8,0,0,1,376,310V286a8,8,0,0,1,8-8h8V223.889l-7.155-14.311a8,8,0,0,1-.69-5.147l8-40A8,8,0,0,1,400,158h32a8,8,0,0,1,7.845,6.431l8,40a8,8,0,0,1-.69,5.147L440,223.889V278h8a8,8,0,0,1,8,8v24a8,8,0,0,1-2.343,5.657L448,321.313V334h32V102H32Zm72-168a56,56,0,1,1-56,56A56.063,56.063,0,0,1,104,166Z" fill="#25aae1" data-original="#000000" style=""/><polygon points="406.559 174 404.958 182 427.042 182 425.441 174 406.559 174" fill="#25aae1" data-original="#000000" style=""/><path d="M104,262A40.068,40.068,0,0,0,143.2,230H64.805A40.068,40.068,0,0,0,104,262Z" fill="#25aae1" data-original="#000000" style=""/><path d="M392,306.687l5.657,5.656A8,8,0,0,1,400,318v16h32V318a8,8,0,0,1,2.343-5.657L440,306.687V294H392Z" fill="#25aae1" data-original="#000000" style=""/><path d="M113.344,193.562a8,8,0,1,1,13.312,8.876L118.948,214H143.2a40,40,0,0,0-78.39,0H99.719Z" fill="#25aae1" data-original="#000000" style=""/></g></g></svg>
