<?xml version="1.0"?>
<svg xmlns="http://www.w3.org/2000/svg" xmlns:xlink="http://www.w3.org/1999/xlink" xmlns:svgjs="http://svgjs.com/svgjs" version="1.1" width="512" height="512" x="0" y="0" viewBox="0 0 511.997 511.997" style="enable-background:new 0 0 512 512" xml:space="preserve" class=""><g><g xmlns="http://www.w3.org/2000/svg"><path d="m173.406 446.712h-22.664v30h210.535v-30h-22.662l-7.141-36.333h-150.928z" fill="#ffffff" data-original="#000000" style="" class=""/><path d="m188.909 196.097 6.993-37.073h-82.08l6.993 37.073z" fill="#ffffff" data-original="#000000" style="" class=""/><path d="m0 344.375h511.997v36.004h-511.997z" fill="#ffffff" data-original="#000000" style="" class=""/><path d="m511.997 35.285h-511.997v279.091h511.997zm-374.268 239.482h-30v-30.002h30zm64.265 0h-30v-30.002h30zm-126.969-159.6h-17.349v-30h42.219l8.273 43.856h123.922l-18.312 97.073h-117.833zm379.005 137.397h-153.02v-30h153.02zm0-60.003h-153.02v-30h153.02zm-153.02-60.004v-30h153.02v30z" fill="#ffffff" data-original="#000000" style="" class=""/></g></g></svg>
