<?xml version="1.0" encoding="utf-8"?>
<!-- Generator: Adobe Illustrator 16.0.0, SVG Export Plug-In . SVG Version: 6.00 Build 0)  -->
<!DOCTYPE svg PUBLIC "-//W3C//DTD SVG 1.1//EN" "http://www.w3.org/Graphics/SVG/1.1/DTD/svg11.dtd">
<svg version="1.1" id="Layer_1" xmlns="http://www.w3.org/2000/svg" xmlns:xlink="http://www.w3.org/1999/xlink" x="0px" y="0px"
	 width="464px" height="464px" viewBox="0 0 464 464" enable-background="new 0 0 464 464" xml:space="preserve">
<g>
	<path fill="#FFFFFF" d="M0.008,392.001c0,13.23,10.77,23.999,24,23.999H440c13.23,0,24-10.769,24-23.999v-8H0.008V392.001z"/>
	<path fill="#FFFFFF" d="M448.602,168.54l9.293,18.585l-30.78,30.781l-18.586-9.292c-8.871,5.214-18.328,9.152-28.199,11.726
		l-6.558,19.672H330.24l-6.559-19.672c-9.87-2.574-19.327-6.504-28.198-11.726l-18.586,9.292l-30.78-30.781l9.293-18.585
		c-5.215-8.871-9.148-18.328-11.727-28.199l-19.68-6.566v-5.769H24.007c-13.23,0-24,10.769-24,24v215.997H464V139.111l-3.672,1.223
		C457.754,150.212,453.824,159.661,448.602,168.54z M80.006,192.004h16v16h-16V192.004z M80.006,288.003h119.998v15.999H80.006
		V288.003z M64.007,168.005h-8c-4.414,0-8,3.586-8,8v8c0,9.542-4.199,18.136-10.855,24c6.656,5.871,10.855,14.457,10.855,24v8
		c0,4.418,3.586,8,8,8h8v16h-8c-13.23,0-24-10.77-24-24v-8c0-8.824-7.176-16-16-16v-16c8.824,0,16-7.176,16-16v-8
		c0-13.23,10.77-24,24-24h8V168.005z M232.004,336.002H80.006v-16h151.998V336.002z M232.004,304.002h-16v-15.999h16V304.002z
		 M232.004,272.003H80.006v-15.999h151.998V272.003z M232.004,240.004H80.006v-16h151.998V240.004z M232.004,208.004H112.006v-16
		h119.998V208.004z M232.004,176.005H80.006v-16h151.998V176.005z M296.003,288.003c-8.824,0-16,7.176-16,15.999v8
		c0,13.23-10.769,24-23.999,24h-8v-16h8c4.418,0,8-3.582,8-8v-8c0-9.542,4.199-18.136,10.854-23.999
		c-6.655-5.863-10.854-14.456-10.854-23.999v-8c0-4.414-3.582-8-8-8h-8v-16h8c13.23,0,23.999,10.77,23.999,24v8
		c0,8.824,7.176,15.999,16,15.999V288.003z"/>
	<path fill="#FFFFFF" d="M320.002,432H144.005v16h-32v16h239.996v-16h-32V432z"/>
	<path fill="#FFFFFF" d="M446.734,96.014l-0.965-4.449c-2.418-11.125-6.809-21.679-13.035-31.367l-2.469-3.832l8.168-16.328
		l-14.472-14.473l-16.328,8.168l-3.832-2.469c-9.688-6.227-20.242-10.617-31.366-13.035l-4.449-0.965L362.225,0h-20.469
		l-5.762,17.265l-4.449,0.965c-11.125,2.418-21.679,6.809-31.366,13.035l-3.832,2.469l-16.328-8.168l-14.472,14.473l8.167,16.328
		l-2.472,3.832c-6.223,9.688-10.613,20.242-13.031,31.367l-0.969,4.449l-17.238,5.761v20.469l17.266,5.762l0.965,4.449
		c2.418,11.129,6.809,21.679,13.035,31.367l2.468,3.832l-8.167,16.328l14.472,14.472l16.328-8.168l3.832,2.473
		c9.688,6.223,20.241,10.613,31.366,13.031l4.449,0.969l5.762,17.261h20.473l5.758-17.261l4.449-0.969
		c11.128-2.418,21.679-6.809,31.366-13.031l3.832-2.473l16.328,8.168l14.472-14.472l-8.168-16.328l2.473-3.832
		c6.223-9.688,10.613-20.238,13.031-31.367l0.969-4.449L464,122.244v-20.461L446.734,96.014z M352.002,192.004
		c-44.112,0-79.999-35.886-79.999-79.999s35.887-79.999,79.999-79.999S432,67.894,432,112.006S396.114,192.004,352.002,192.004z"/>
	<path fill="#FFFFFF" d="M352.002,48.007c-35.289,0-63.999,28.71-63.999,63.999s28.71,63.999,63.999,63.999
		c35.288,0,63.999-28.71,63.999-63.999S387.29,48.007,352.002,48.007z M352.002,144.005c-17.648,0-32-14.351-32-32
		c0-17.648,14.352-32,32-32s31.999,14.352,31.999,32C384.001,129.654,369.65,144.005,352.002,144.005z"/>
</g>
</svg>
