<?xml version="1.0" encoding="utf-8"?>
<!-- Generator: Adobe Illustrator 16.0.0, SVG Export Plug-In . SVG Version: 6.00 Build 0)  -->
<!DOCTYPE svg PUBLIC "-//W3C//DTD SVG 1.1//EN" "http://www.w3.org/Graphics/SVG/1.1/DTD/svg11.dtd">
<svg version="1.1" id="Solid" xmlns="http://www.w3.org/2000/svg" xmlns:xlink="http://www.w3.org/1999/xlink" x="0px" y="0px"
	 width="512px" height="512px" viewBox="0 0 512 512" enable-background="new 0 0 512 512" xml:space="preserve">
<g>
	<path fill="#FFFFFF" d="M214.777,400l-13.333,80h109.112l-13.333-80H214.777z"/>
	<path fill="#FFFFFF" d="M300.645,252.359l-41.972-9.686l9.687,41.972c2.006,8.802,8.801,15.721,17.564,17.887l21.853,5.463
		l16.218-16.219l-5.463-21.852C316.366,261.16,309.446,254.365,300.645,252.359L300.645,252.359z"/>
	<path fill="#FFFFFF" d="M321.473,316.859l11.312-11.313l33.935,33.935l-11.312,11.313L321.473,316.859z"/>
	<path fill="#FFFFFF" d="M366.794,362.109l96.165,96.166c3.124,3.124,8.189,3.124,11.314,0c3.124-3.125,3.124-8.19,0-11.314
		L378.108,350.8L366.794,362.109z"/>
	<path fill="#FFFFFF" d="M96,160h80v80H96V160z"/>
	<path fill="#FFFFFF" d="M32,304h228.314c-3.646-4.633-6.222-10.014-7.545-15.758L240.205,233.8
		c-0.994-4.305,1.691-8.601,5.996-9.594c1.184-0.273,2.414-0.273,3.598,0l54.443,12.564c14.669,3.343,26.202,14.668,29.812,29.274
		l6.024,24.101L353.939,304H480V96H32V304z M120,288h-16c-4.418,0-8-3.582-8-8s3.582-8,8-8h16c4.418,0,8,3.582,8,8
		S124.418,288,120,288z M168,288h-16c-4.418,0-8-3.582-8-8s3.582-8,8-8h16c4.418,0,8,3.582,8,8S172.418,288,168,288z M224,280
		c0,4.418-3.582,8-8,8h-16c-4.418,0-8-3.582-8-8s3.582-8,8-8h8v-8c0-4.418,3.582-8,8-8s8,3.582,8,8V280z M224,232
		c0,4.418-3.582,8-8,8s-8-3.582-8-8v-16c0-4.418,3.582-8,8-8s8,3.582,8,8V232z M224,184c0,4.418-3.582,8-8,8s-8-3.582-8-8v-16
		c0-4.418,3.582-8,8-8s8,3.582,8,8V184z M456,240H344c-4.418,0-8-3.582-8-8s3.582-8,8-8h112c4.418,0,8,3.582,8,8
		S460.418,240,456,240z M456,208H328c-4.418,0-8-3.582-8-8s3.582-8,8-8h128c4.418,0,8,3.582,8,8S460.418,208,456,208z M240,120
		c0-4.418,3.582-8,8-8h208c4.418,0,8,3.582,8,8v48c0,4.418-3.582,8-8,8H248c-4.418,0-8-3.582-8-8V120z M248,192h48
		c4.418,0,8,3.582,8,8s-3.582,8-8,8h-48c-4.418,0-8-3.582-8-8S243.582,192,248,192z M200,112h16c4.418,0,8,3.582,8,8v16
		c0,4.418-3.582,8-8,8s-8-3.582-8-8v-8h-8c-4.418,0-8-3.582-8-8S195.582,112,200,112z M152,112h16c4.418,0,8,3.582,8,8s-3.582,8-8,8
		h-16c-4.418,0-8-3.582-8-8S147.582,112,152,112z M104,112h16c4.418,0,8,3.582,8,8s-3.582,8-8,8h-16c-4.418,0-8-3.582-8-8
		S99.582,112,104,112z M88,144h96c4.418,0,8,3.582,8,8v96c0,4.418-3.582,8-8,8H88c-4.418,0-8-3.582-8-8v-96
		C80,147.582,83.582,144,88,144z M48,120c0-4.418,3.582-8,8-8h16c4.418,0,8,3.582,8,8s-3.582,8-8,8h-8v8c0,4.418-3.582,8-8,8
		s-8-3.582-8-8V120z M48,168c0-4.418,3.582-8,8-8s8,3.582,8,8v16c0,4.418-3.582,8-8,8s-8-3.582-8-8V168z M48,216
		c0-4.418,3.582-8,8-8s8,3.582,8,8v16c0,4.418-3.582,8-8,8s-8-3.582-8-8V216z M48,264c0-4.418,3.582-8,8-8s8,3.582,8,8v8h8
		c4.418,0,8,3.582,8,8s-3.582,8-8,8H56c-4.418,0-8-3.582-8-8V264z"/>
	<path fill="#FFFFFF" d="M433.939,384H472c4.416-0.005,7.995-3.584,8-8v-56H369.939L433.939,384z"/>
	<path fill="#FFFFFF" d="M472,32H40c-4.416,0.005-7.995,3.584-8,8v40h448V40C479.995,35.584,476.416,32.005,472,32z M56,64
		c-4.418,0-8-3.582-8-8s3.582-8,8-8s8,3.582,8,8S60.418,64,56,64z M88,64c-4.418,0-8-3.582-8-8s3.582-8,8-8s8,3.582,8,8
		S92.418,64,88,64z M120,64c-4.418,0-8-3.582-8-8s3.582-8,8-8s8,3.582,8,8S124.418,64,120,64z"/>
	<path fill="#FFFFFF" d="M256,128h192v32H256V128z"/>
	<path fill="#FFFFFF" d="M289.828,320H32v56c0.005,4.416,3.584,7.995,8,8h326.057l-59.923-59.924L289.828,320z M272,352h-32
		c-4.418,0-8-3.582-8-8s3.582-8,8-8h32c4.418,0,8,3.582,8,8S276.418,352,272,352z"/>
</g>
</svg>
