<?xml version="1.0" encoding="utf-8"?>
<!-- Generator: Adobe Illustrator 16.0.0, SVG Export Plug-In . SVG Version: 6.00 Build 0)  -->
<!DOCTYPE svg PUBLIC "-//W3C//DTD SVG 1.1//EN" "http://www.w3.org/Graphics/SVG/1.1/DTD/svg11.dtd">
<svg version="1.1" id="Layer_1" xmlns="http://www.w3.org/2000/svg" xmlns:xlink="http://www.w3.org/1999/xlink" x="0px" y="0px"
	 width="512px" height="512px" viewBox="0 0 512 512" enable-background="new 0 0 512 512" xml:space="preserve">
<g>
	<path fill="#FFFFFF" d="M335,228.163c0.083-16.189,13.274-29.247,29.464-29.164c0.033,0,0.066,0,0.101,0H430V37H17v256h318V228.163
		z M201.481,205.206c2.667,1.966,3.236,5.722,1.271,8.39s-5.722,3.236-8.39,1.271c-0.04-0.029-0.079-0.059-0.118-0.089
		l-52.227-39.493c-2.643-1.999-3.165-5.762-1.167-8.405c0.333-0.441,0.726-0.833,1.167-1.167l52.227-39.493
		c2.651-1.987,6.412-1.449,8.399,1.203c1.976,2.636,1.457,6.372-1.163,8.369l-45.9,34.707L201.481,205.206z M238.181,112.817
		l-17.828,117.8c-0.497,3.276-3.556,5.53-6.833,5.033s-5.53-3.556-5.033-6.833l17.829-117.795c0.497-3.276,3.556-5.53,6.833-5.033
		s5.53,3.556,5.033,6.833V112.817z M304.649,175.284l-52.228,39.493c-2.667,1.966-6.424,1.397-8.39-1.271
		c-1.932-2.621-1.42-6.305,1.153-8.3l45.9-34.707l-45.9-34.707c-2.635-2.01-3.141-5.775-1.131-8.41
		c1.998-2.619,5.732-3.137,8.368-1.163l52.228,39.493c2.643,1.999,3.165,5.762,1.166,8.405
		C305.482,174.559,305.09,174.951,304.649,175.284z"/>
	<path fill="#FFFFFF" d="M347,457.86c0.078,9.545,7.878,17.219,17.423,17.142c0.047-0.001,0.094-0.001,0.142-0.002h112.884
		c9.538,0.155,17.396-7.451,17.55-16.989c0.001-0.05,0.002-0.101,0.002-0.15V432H347V457.86z M421.006,435.38
		c10.107,0,18.3,8.193,18.3,18.3c0,10.107-8.192,18.3-18.3,18.3c-10.106,0-18.3-8.192-18.3-18.3l0,0
		C402.715,443.577,410.902,435.389,421.006,435.38z"/>
	<path fill="#FFFFFF" d="M421.006,459.972c3.479,0,6.3-2.82,6.3-6.3s-2.82-6.3-6.3-6.3s-6.3,2.82-6.3,6.3l0,0
		C414.706,457.151,417.526,459.972,421.006,459.972z"/>
	<path fill="#FFFFFF" d="M17,305h318v58H17V305z"/>
	<path fill="#FFFFFF" d="M477.448,211H364.564c-9.554-0.146-17.417,7.48-17.563,17.033c-0.001,0.043-0.002,0.086-0.002,0.13V245h148
		v-16.837c-0.069-9.549-7.867-17.234-17.417-17.165C477.538,210.999,477.493,211,477.448,211z M440.987,232h-39.962
		c-3.314,0-6-2.687-6-6s2.686-6,6-6h39.962c3.313,0,6,2.687,6,6S444.301,232,440.987,232z"/>
	<path fill="#FFFFFF" d="M347,293.073V420h148V257H347V293.073z M391.322,273h91.584c3.313,0,6,2.687,6,6s-2.687,6-6,6l0,0h-91.584
		c-3.314,0-6-2.687-6-6S388.008,273,391.322,273z M391.322,302h91.584c3.313,0,6,2.687,6,6s-2.687,6-6,6l0,0h-91.584
		c-3.314,0-6-2.687-6-6S388.008,302,391.322,302z M391.322,332h91.584c3.313,0,6,2.687,6,6s-2.687,6-6,6l0,0h-91.584
		c-3.314,0-6-2.687-6-6S388.008,332,391.322,332z M391.322,362h91.584c3.313,0,6,2.687,6,6s-2.687,6-6,6l0,0h-91.584
		c-3.314,0-6-2.687-6-6S388.008,362,391.322,362z M391.322,392h91.584c3.313,0,6,2.687,6,6s-2.687,6-6,6l0,0h-91.584
		c-3.314,0-6-2.687-6-6S388.008,392,391.322,392z M359.105,273h13.388c3.313,0,6,2.687,6,6s-2.687,6-6,6h-13.388
		c-3.313,0-6-2.687-6-6S355.792,273,359.105,273z M359.105,302h13.388c3.313,0,6,2.687,6,6s-2.687,6-6,6h-13.388
		c-3.313,0-6-2.687-6-6S355.792,302,359.105,302z M359.105,332h13.388c3.313,0,6,2.687,6,6s-2.687,6-6,6h-13.388
		c-3.313,0-6-2.687-6-6S355.792,332,359.105,332z M359.105,362h13.388c3.313,0,6,2.687,6,6s-2.687,6-6,6h-13.388
		c-3.313,0-6-2.687-6-6S355.792,362,359.105,362z M359.105,392h13.388c3.313,0,6,2.687,6,6s-2.687,6-6,6h-13.388
		c-3.313,0-6-2.687-6-6S355.792,392,359.105,392z"/>
	<path fill="#FFFFFF" d="M335.814,435c0-3.313-2.687-6-6-6h-39.558l-15.2-54h-103.45l-15.2,54h-39.558c-3.314,0-6,2.687-6,6
		s2.686,6,6,6l0,0h212.965C333.128,441,335.814,438.313,335.814,435z"/>
</g>
</svg>
