<?xml version="1.0" encoding="iso-8859-1"?>
<!-- Generator: Adobe Illustrator 19.0.0, SVG Export Plug-In . SVG Version: 6.00 Build 0)  -->
<svg version="1.1" id="Capa_1" xmlns="http://www.w3.org/2000/svg" xmlns:xlink="http://www.w3.org/1999/xlink" x="0px" y="0px"
	 viewBox="0 0 499.096 499.096" style="enable-background:new 0 0 499.096 499.096;" xml:space="preserve">
<g>
	<g>
		<path d="M183.272,418.436l-26.376,79.112h342.2l-26.376-79.112c-6.576-19.728-23.408-34.112-43.92-37.528l-52.216-8.704
			c14.24-8.408,26.12-20.344,34.424-34.656H424c13.232,0,24-10.768,24-24c13.232,0,24-10.768,24-24v-32
			c0-10.416-6.712-19.216-16-22.528v-33.472c0-70.576-57.424-128-128-128c-26.68,0-51.472,8.232-72,22.256V25.548
			c0-13.232-10.768-24-24-24H24c-13.232,0-24,10.768-24,24v96c0,13.232,10.768,24,24,24h45.576L152,200.5v-54.952h61.08
			c-8.296,16.944-13.08,35.904-13.08,56v33.472c-7.616,2.712-13.448,9.104-15.32,17.072c-9.384-6.752-20.752-10.544-32.68-10.544
			c-12.048,0-23.976,3.984-33.592,11.2L104,263.548l-14.4-10.8c-9.624-7.216-21.552-11.2-33.6-11.2c-30.872,0-56,25.12-56,56
			c0,17.528,8.376,34.28,22.408,44.8l81.592,61.2l81.592-61.2c9.768-7.32,16.72-17.472,20.104-29.032
			c0.768,0.072,1.512,0.232,2.304,0.232h27.16c6.448,24.912,22.616,45.888,44.256,58.656l-52.216,8.704
			C206.68,384.324,189.848,398.708,183.272,418.436z M176,329.548l-72,54l-72-54c-10.016-7.512-16-19.472-16-32
			c0-22.056,17.944-40,40-40c8.6,0,17.128,2.84,24,8l24,18l24.008-18c6.864-5.16,15.392-8,23.992-8c12.688,0,24.456,6.024,32,16.128
			v15.872c0,6.528,2.632,12.44,6.872,16.768C188.792,315.588,183.656,323.812,176,329.548z M341.752,481.548H314.24l6.616-26.456
			l-14.92-14.92L328,433.868l22.064,6.304l-14.92,14.92L341.752,481.548z M311.416,384.012c5.4,0.944,10.92,1.536,16.584,1.536
			s11.184-0.592,16.584-1.536L328,404.74L311.416,384.012z M426.176,396.692c14.656,2.44,26.672,12.712,31.376,26.808l19.344,58.048
			H438.56l-6.712-33.568l-15.688,3.144l6.08,30.424h-64l-5.384-21.544l14.8-14.8l21.832,6.24l16.608-58.096L426.176,396.692z
			 M390.208,390.684l-11.696,40.968l-41.968-11.984l26.768-33.464L390.208,390.684z M424,321.548h-5.6
			c0.928-2.616,1.736-5.288,2.44-8H432C432,317.956,428.416,321.548,424,321.548z M456,257.548v32c0,4.408-3.584,8-8,8v-16h-16v16
			h-8.408c0.224-2.648,0.408-5.296,0.408-8v-40h24C452.416,249.548,456,253.14,456,257.548z M136,129.548v41.048l-61.576-41.048H24
			c-4.416,0-8-3.592-8-8v-96c0-4.408,3.584-8,8-8h208c4.416,0,8,3.592,8,8v83.288c-6.6,6.272-12.592,13.168-17.744,20.712H136z
			 M208,297.548c-4.416,0-8-3.592-8-8v-32c0-4.408,3.584-8,8-8h24v40c0,2.704,0.184,5.352,0.408,8H208z M232,209.548v24h-16v-32
			c0-61.76,50.24-112,112-112s112,50.24,112,112v32h-16v-24h-8c-13.336,0-25.872-5.192-35.312-14.624L352.864,167.1l-15.944,11.384
			c-28.448,20.32-61.96,31.064-96.92,31.064H232z M248,289.548V225.38c35.416-1.52,69.216-13.152,98.216-33.864l4.912-3.512
			l18.24,18.24c10.552,10.552,24.048,17.08,38.624,18.832v64.472c0,11.376-2.424,22.192-6.728,32h-42.752
			c-3.312-9.288-12.112-16-22.528-16h-16c-13.232,0-24,10.768-24,24s10.768,24,24,24h16c10.416,0,19.216-6.712,22.528-16h33.32
			c-14.616,19.384-37.76,32-63.848,32C283.888,369.548,248,333.66,248,289.548z M344,329.548c0,4.408-3.584,8-8,8h-16
			c-4.416,0-8-3.592-8-8c0-4.408,3.584-8,8-8h16C340.416,321.548,344,325.14,344,329.548z M292.688,386.212l26.768,33.464
			l-41.96,11.984L265.8,390.692L292.688,386.212z M249.904,393.34l16.608,58.096l21.832-6.24l14.8,14.8l-5.384,21.552h-64
			l6.088-30.432l-15.688-3.144l-6.72,33.576h-38.344L198.44,423.5c4.704-14.096,16.728-24.368,31.376-26.808L249.904,393.34z"/>
	</g>
</g>
<g>
	<g>
		<circle cx="376" cy="249.548" r="8"/>
	</g>
</g>
<g>
	<g>
		<circle cx="280" cy="249.548" r="8"/>
	</g>
</g>
<g>
	<g>
		<path d="M56,49.548c-13.232,0-24,10.768-24,24s10.768,24,24,24s24-10.768,24-24S69.232,49.548,56,49.548z M56,81.548
			c-4.416,0-8-3.592-8-8s3.584-8,8-8s8,3.592,8,8S60.416,81.548,56,81.548z"/>
	</g>
</g>
<g>
	<g>
		<path d="M128,49.548c-13.232,0-24,10.768-24,24s10.768,24,24,24s24-10.768,24-24S141.232,49.548,128,49.548z M128,81.548
			c-4.416,0-8-3.592-8-8s3.584-8,8-8s8,3.592,8,8S132.416,81.548,128,81.548z"/>
	</g>
</g>
<g>
	<g>
		<path d="M200,49.548c-13.232,0-24,10.768-24,24s10.768,24,24,24s24-10.768,24-24S213.232,49.548,200,49.548z M200,81.548
			c-4.416,0-8-3.592-8-8s3.584-8,8-8s8,3.592,8,8S204.416,81.548,200,81.548z"/>
	</g>
</g>
<g>
</g>
<g>
</g>
<g>
</g>
<g>
</g>
<g>
</g>
<g>
</g>
<g>
</g>
<g>
</g>
<g>
</g>
<g>
</g>
<g>
</g>
<g>
</g>
<g>
</g>
<g>
</g>
<g>
</g>
</svg>
