<?xml version="1.0" encoding="utf-8"?>
<!-- Generator: Adobe Illustrator 16.0.0, SVG Export Plug-In . SVG Version: 6.00 Build 0)  -->
<!DOCTYPE svg PUBLIC "-//W3C//DTD SVG 1.1//EN" "http://www.w3.org/Graphics/SVG/1.1/DTD/svg11.dtd">
<svg version="1.1" id="Layer_1" xmlns="http://www.w3.org/2000/svg" xmlns:xlink="http://www.w3.org/1999/xlink" x="0px" y="0px"
	 width="1200px" height="1200px" viewBox="0 0 1200 1200" enable-background="new 0 0 1200 1200" xml:space="preserve">
<g>
	<g>
		<path fill="#FFFFFF" d="M600,0C269.14,0,0,269.166,0,600c0,330.834,269.14,600,600,600s600-269.166,600-600
			C1200,269.166,930.86,0,600,0z M838.525,621.021l-349.999,225c-4.102,2.66-8.838,3.979-13.525,3.979
			c-4.102,0-8.253-1.026-11.963-3.052C454.98,842.555,450,834.154,450,825V375c0-9.155,4.98-17.555,13.038-21.949
			c7.91-4.345,17.822-4.078,25.488,0.928l349.999,225c7.13,4.59,11.476,12.525,11.476,21.021S845.655,616.43,838.525,621.021z"/>
	</g>
</g>
</svg>
