<?xml version="1.0"?>
<svg xmlns="http://www.w3.org/2000/svg" xmlns:xlink="http://www.w3.org/1999/xlink" xmlns:svgjs="http://svgjs.com/svgjs" version="1.1" width="512" height="512" x="0" y="0" viewBox="0 0 64 64" style="enable-background:new 0 0 512 512" xml:space="preserve" class=""><g><g xmlns="http://www.w3.org/2000/svg" id="Phonebook"><path d="m57 2h-44a5.006 5.006 0 0 0 -5 5v3h-2a4 4 0 0 0 0 8h2v4h-2a4 4 0 0 0 0 8h2v5h-2a4 4 0 0 0 0 8h2v4h-2a4 4 0 0 0 0 8h2v2a5.006 5.006 0 0 0 5 5h44a5.006 5.006 0 0 0 5-5v-50a5.006 5.006 0 0 0 -5-5zm-51 14a2 2 0 0 1 0-4h6a2 2 0 0 1 0 4zm0 12a2 2 0 0 1 0-4h6a2 2 0 0 1 0 4zm0 13a2 2 0 0 1 0-4h6a2 2 0 0 1 0 4zm0 12a2 2 0 0 1 0-4h6a2 2 0 0 1 0 4zm14 7h-7a3 3 0 0 1 -3-3v-2h2a4 4 0 0 0 0-8h-2v-4h2a4 4 0 0 0 0-8h-2v-5h2a4 4 0 0 0 0-8h-2v-4h2a4 4 0 0 0 0-8h-2v-3a3 3 0 0 1 3-3h7zm40-3a3 3 0 0 1 -3 3h-35v-56h35a3 3 0 0 1 3 3z" fill="#145782" data-original="#000000" style="" class=""/><path d="m57.385 37.657-6.364-6.364a1.031 1.031 0 0 0 -1.415 0l-4.242 4.243a3.005 3.005 0 0 1 -4.243 0l-5.656-5.657a3 3 0 0 1 0-4.243l4.242-4.242a1 1 0 0 0 0-1.415l-6.364-6.364a1.029 1.029 0 0 0 -1.414 0l-2.829 2.829a13 13 0 0 0 0 18.384l7.072 7.072a13.014 13.014 0 0 0 18.385 0l2.828-2.828a1 1 0 0 0 0-1.415zm-24.749-21.921 4.95 4.951-1.414 1.413-4.95-4.95zm4.95 24.749-7.071-7.071a11 11 0 0 1 -.676-14.814l4.473 4.472.446.446-.707.707a5 5 0 0 0 0 7.071l5.656 5.657a5.006 5.006 0 0 0 7.071 0l.707-.707 4.915 4.915a11.016 11.016 0 0 1 -14.814-.676zm16.264-.707-4.95-4.949 1.414-1.415 4.951 4.95z" fill="#145782" data-original="#000000" style="" class=""/></g></g></svg>
