<svg xmlns="http://www.w3.org/2000/svg" viewBox="0 0 536.9 81.4"><defs><style>.cls-1{fill:#ef574b;}.cls-2{fill:#6995b7;}</style></defs><title>Asset 2</title><g id="Layer_2" data-name="Layer 2"><g id="Layer_1-2" data-name="Layer 1"><path class="cls-1" d="M350.6,1.2a7,7,0,0,1,5.2,2.1,7,7,0,0,1,2.1,5.2,7.3,7.3,0,0,1-14.6,0,7,7,0,0,1,2.1-5.2A7.17,7.17,0,0,1,350.6,1.2Z"/><path class="cls-2" d="M412,1.2a7,7,0,0,1,5.2,2.1,7,7,0,0,1,2.1,5.2,7.3,7.3,0,0,1-14.6,0,7,7,0,0,1,2.1-5.2A7.17,7.17,0,0,1,412,1.2Z"/><path class="cls-2" d="M117.6,45.6V66.9c0,4.7.5,7.5,1.5,8.6,1.4,1.6,3.5,2.3,6.2,2.3h2.8v2H96.8v-2h2.7q4.65,0,6.6-3c.8-1.2,1.1-3.8,1.1-8V19.5c0-4.6-.5-7.4-1.5-8.5a8.07,8.07,0,0,0-6.3-2.4H96.7v-2h27c6.4,0,11.6.7,15.5,2.1a19,19,0,0,1,5.3,2.7,20.91,20.91,0,0,1,4.3,4.1,20.38,20.38,0,0,1,2.9,5.2,17.92,17.92,0,0,1,1,6.2,20.88,20.88,0,0,1-1.5,8.1,17.88,17.88,0,0,1-4.4,6.4,20,20,0,0,1-7.1,4.2,28.45,28.45,0,0,1-9.6,1.5A80.76,80.76,0,0,1,117.6,45.6Zm0-3.2a37.79,37.79,0,0,0,5.1.8,28.69,28.69,0,0,0,3.8.3,11.78,11.78,0,0,0,5.3-1.2,15.55,15.55,0,0,0,4.4-3.2,13.91,13.91,0,0,0,3-5,18.1,18.1,0,0,0,1.1-6.3,20.13,20.13,0,0,0-1.2-7.2,14.93,14.93,0,0,0-3.3-5.3,12.52,12.52,0,0,0-4.9-3.3,15.39,15.39,0,0,0-6.1-1.1,31.36,31.36,0,0,0-7.1,1V42.4Z"/><path class="cls-2" d="M174.4,28.9V40c4.2-7.4,8.5-11.1,12.8-11.1a7.63,7.63,0,0,1,2.7.5,8,8,0,0,1,2.2,1.3,9,9,0,0,1,1.5,1.9,5.93,5.93,0,0,1,.5,2.3,4.83,4.83,0,0,1-1.4,3.5,4.42,4.42,0,0,1-3.3,1.5,4.83,4.83,0,0,1-2.1-.6c-.8-.4-1.5-.8-2.3-1.3s-1.4-.9-2-1.3a3,3,0,0,0-1.4-.6c-1,0-2.1.8-3.4,2.3a29.65,29.65,0,0,0-3.8,6V68.2a22.9,22.9,0,0,0,.3,3.9,6.77,6.77,0,0,0,1.2,3,5.7,5.7,0,0,0,2.6,1.9,12,12,0,0,0,4.6.7v1.9H157.7V77.7a20.57,20.57,0,0,0,3.9-.3,4.06,4.06,0,0,0,2.4-1.3,5.19,5.19,0,0,0,1.2-2.8,30.48,30.48,0,0,0,.3-4.8v-19c0-2.9,0-5.2-.1-6.9s-.2-2.8-.3-3.4c-.5-2.1-1.7-3.2-3.6-3.2a11,11,0,0,0-1.8.2,8.93,8.93,0,0,0-2,.6l-.5-1.9,14.9-6Z"/><path class="cls-2" d="M220.9,28.9a23.1,23.1,0,0,1,9.5,2,24,24,0,0,1,7.5,5.4,25.68,25.68,0,0,1,5,8.1,27,27,0,0,1,1.8,9.8,29.91,29.91,0,0,1-2,11,26.17,26.17,0,0,1-5.4,8.6,26.66,26.66,0,0,1-7.8,5.6,22.86,22.86,0,0,1-9.3,2,21.23,21.23,0,0,1-9.4-2.1,24.14,24.14,0,0,1-7.4-5.6,25,25,0,0,1-4.8-8.2,27,27,0,0,1-1.7-9.8,26.66,26.66,0,0,1,1.9-10.1,27.13,27.13,0,0,1,5.1-8.5,24.34,24.34,0,0,1,7.6-5.9A19.24,19.24,0,0,1,220.9,28.9Zm-1.6,3.5a9.88,9.88,0,0,0-4.5,1,10.62,10.62,0,0,0-3.9,3.2,18.41,18.41,0,0,0-2.7,5.8,30.78,30.78,0,0,0-1,8.6,46.43,46.43,0,0,0,1.1,10,31.91,31.91,0,0,0,3.1,8.4,17.59,17.59,0,0,0,4.9,5.8,10.77,10.77,0,0,0,6.4,2.2,11.17,11.17,0,0,0,4.8-1,9.23,9.23,0,0,0,3.8-3.3,16.93,16.93,0,0,0,2.5-5.9,37.86,37.86,0,0,0,.9-9,53,53,0,0,0-1-10,30.41,30.41,0,0,0-3-8.2,17.59,17.59,0,0,0-4.8-5.6A11.91,11.91,0,0,0,219.3,32.4Z"/><path class="cls-2" d="M266.7,39.4c1.8-1.8,3.3-3.2,4.3-4.3a13.11,13.11,0,0,1,2.1-1.9,17.85,17.85,0,0,1,5.2-3.2,14,14,0,0,1,5.6-1.1,12.29,12.29,0,0,1,8,2.7,13.72,13.72,0,0,1,4.5,7.9,67.19,67.19,0,0,1,5-5.3,19.46,19.46,0,0,1,4.4-3.2,15.32,15.32,0,0,1,3.9-1.6,17.22,17.22,0,0,1,3.9-.4,14.4,14.4,0,0,1,5.1.9,9.62,9.62,0,0,1,4.2,3.1,15.18,15.18,0,0,1,2.8,5.7,31.82,31.82,0,0,1,1,8.8V68.6c0,1.6,0,3,.1,4.2a7.66,7.66,0,0,0,.8,2.9,4.25,4.25,0,0,0,2.2,1.7,15,15,0,0,0,4.2.5v1.9H309.7V77.9h1a15.48,15.48,0,0,0,3.3-.3,3.84,3.84,0,0,0,2.2-1.3,7.34,7.34,0,0,0,1.2-2.8,29.08,29.08,0,0,0,.4-4.9V47.3a22.92,22.92,0,0,0-.6-5.8,10.58,10.58,0,0,0-1.6-3.7,6.06,6.06,0,0,0-2.6-1.9,12.3,12.3,0,0,0-3.5-.5,12.65,12.65,0,0,0-2.8.3,12.52,12.52,0,0,0-2.9,1,17.46,17.46,0,0,0-3.2,2.1,23.66,23.66,0,0,0-3.8,3.9V68.6c0,1.8,0,3.2.1,4.2a10.75,10.75,0,0,0,.4,2.3,3.6,3.6,0,0,0,.8,1.2,5.65,5.65,0,0,0,1.4.9,13,13,0,0,0,5.3.8v1.9h-25V78a19.07,19.07,0,0,0,4.6-.4,4.65,4.65,0,0,0,2.4-1.4,5.85,5.85,0,0,0,.9-2.9c.1-1.2.2-2.7.2-4.6V47.3a24,24,0,0,0-.6-5.8,10.6,10.6,0,0,0-1.7-3.7,6.59,6.59,0,0,0-2.7-2,9,9,0,0,0-3.4-.6,11.93,11.93,0,0,0-3.7.6,16.15,16.15,0,0,0-3.5,1.7,24.44,24.44,0,0,0-3.1,2.2,16.55,16.55,0,0,0-2.3,2.3V68.6a39,39,0,0,0,.2,4,11.05,11.05,0,0,0,.5,2.4,3.22,3.22,0,0,0,.8,1.3,3.6,3.6,0,0,0,1.2.8c.9.5,2.7.7,5.4.7v1.9H250.5V77.8a14.48,14.48,0,0,0,4-.4,3.64,3.64,0,0,0,2.3-1.4,5.47,5.47,0,0,0,1-2.8,31.09,31.09,0,0,0,.2-4.7V49.7c0-3.2-.1-5.7-.2-7.6a17.08,17.08,0,0,0-.6-4.1,2.59,2.59,0,0,0-1.2-1.7,5.62,5.62,0,0,0-2-.3,10,10,0,0,0-1.6.2,8.93,8.93,0,0,0-2,.6l-.8-1.9,14.9-6h2.3V39.4Z"/><path class="cls-2" d="M355.1,28.9V68.6a24.61,24.61,0,0,0,.4,5.4,4.86,4.86,0,0,0,1.3,2.7,3.73,3.73,0,0,0,2.3,1c.9.1,2.1.1,3.4.1v1.9h-24V77.8a14.48,14.48,0,0,0,4-.4,3.64,3.64,0,0,0,2.3-1.4,5.86,5.86,0,0,0,1-2.9c.1-1.2.2-2.8.2-4.6V49.6c0-3.1-.1-5.6-.2-7.4a17.08,17.08,0,0,0-.6-4.1,2.59,2.59,0,0,0-1.2-1.7,5.44,5.44,0,0,0-2-.4,11.14,11.14,0,0,0-1.7.2,10.78,10.78,0,0,0-2,.6l-.8-1.9,14.9-6Z"/><path class="cls-2" d="M383.1,14.1V30.3h11.5v3.8H383.1V66.2a14.94,14.94,0,0,0,.4,4,6.5,6.5,0,0,0,1,2.5,4.84,4.84,0,0,0,1.6,1.3,5.85,5.85,0,0,0,1.9.4,6.42,6.42,0,0,0,6-4.4h2.1a16.82,16.82,0,0,1-5.3,8,11.54,11.54,0,0,1-7.2,2.7,8.52,8.52,0,0,1-6.8-3c-1.7-2-2.6-5.4-2.6-10.2V34.1h-7.9V32.3a20.8,20.8,0,0,0,8.3-6.1,46.05,46.05,0,0,0,6.8-12.1Z"/><path class="cls-2" d="M416.5,28.9V68.6a24.61,24.61,0,0,0,.4,5.4,4.86,4.86,0,0,0,1.3,2.7,3.73,3.73,0,0,0,2.3,1c.9.1,2.1.1,3.4.1v1.9h-24V77.8a14.48,14.48,0,0,0,4-.4,3.64,3.64,0,0,0,2.3-1.4,5.86,5.86,0,0,0,1-2.9c.1-1.2.2-2.8.2-4.6V49.6c0-3.1-.1-5.6-.2-7.4a17.08,17.08,0,0,0-.6-4.1,2.59,2.59,0,0,0-1.2-1.7,5.44,5.44,0,0,0-2-.4,11.14,11.14,0,0,0-1.7.2,10.78,10.78,0,0,0-2,.6l-.8-1.9,14.9-6Z"/><path class="cls-2" d="M454.3,28.9a23.1,23.1,0,0,1,9.5,2,24,24,0,0,1,7.5,5.4,25.68,25.68,0,0,1,5,8.1,27,27,0,0,1,1.8,9.8,29.91,29.91,0,0,1-2,11,26.17,26.17,0,0,1-5.4,8.6,26.66,26.66,0,0,1-7.8,5.6,22.86,22.86,0,0,1-9.3,2,21.23,21.23,0,0,1-9.4-2.1,24.14,24.14,0,0,1-7.4-5.6,25,25,0,0,1-4.8-8.2,27,27,0,0,1-1.7-9.8,26.66,26.66,0,0,1,1.9-10.1,27.13,27.13,0,0,1,5.1-8.5,24.34,24.34,0,0,1,7.6-5.9A19,19,0,0,1,454.3,28.9Zm-1.7,3.5a9.88,9.88,0,0,0-4.5,1,10.62,10.62,0,0,0-3.9,3.2,18.41,18.41,0,0,0-2.7,5.8,30.78,30.78,0,0,0-1,8.6,46.43,46.43,0,0,0,1.1,10,31.91,31.91,0,0,0,3.1,8.4,17.59,17.59,0,0,0,4.9,5.8,10.77,10.77,0,0,0,6.4,2.2,11.17,11.17,0,0,0,4.8-1,9.23,9.23,0,0,0,3.8-3.3,16.93,16.93,0,0,0,2.5-5.9,37.86,37.86,0,0,0,.9-9,45.83,45.83,0,0,0-1-10,30.41,30.41,0,0,0-3-8.2,17.59,17.59,0,0,0-4.8-5.6A11.44,11.44,0,0,0,452.6,32.4Z"/><path class="cls-2" d="M499.9,39.3c5.7-7,11.3-10.5,16.5-10.5a14.4,14.4,0,0,1,5.1.9,9.35,9.35,0,0,1,4.1,3.1,13.77,13.77,0,0,1,2.7,5.7,37,37,0,0,1,1,8.9V68.6a23.29,23.29,0,0,0,.4,5.1,5.19,5.19,0,0,0,1.2,2.8,4.25,4.25,0,0,0,2.3,1.2,20,20,0,0,0,3.7.2v1.9H512.5V77.9h1a12.94,12.94,0,0,0,3.8-.4,4.08,4.08,0,0,0,2.1-1.5,5.85,5.85,0,0,0,.9-2.9c.1-1.2.2-2.7.2-4.5V48.4c0-4.6-.6-7.8-1.7-9.8s-3.1-3-5.9-3c-4.4,0-8.6,2.3-12.8,7v26c0,2.1.1,3.7.2,5a5.47,5.47,0,0,0,1,2.8,4,4,0,0,0,2.4,1.3,25.92,25.92,0,0,0,4.4.3v1.9H483.6V78h1a9.6,9.6,0,0,0,3.2-.4,4.26,4.26,0,0,0,2-1.5,7,7,0,0,0,1-2.9,28.09,28.09,0,0,0,.3-4.5V50.3c0-3.5-.1-6.3-.2-8.2a17.23,17.23,0,0,0-.6-4.2,2.35,2.35,0,0,0-1.2-1.6,5.26,5.26,0,0,0-1.9-.2,11.14,11.14,0,0,0-1.7.2,10.78,10.78,0,0,0-2,.6l-.8-1.9,14.9-6h2.3Z"/><path class="cls-1" d="M40.7,0A40.69,40.69,0,0,0,15.2,72.4V40.7h0A25.5,25.5,0,1,1,40.7,66.2a24.91,24.91,0,0,1-10.6-2.3V80A40.7,40.7,0,1,0,40.7,0Z"/><circle class="cls-2" cx="40.7" cy="40.7" r="10.6"/></g></g></svg>