<?xml version="1.0" encoding="utf-8"?>
<!-- Generator: Adobe Illustrator 16.0.0, SVG Export Plug-In . SVG Version: 6.00 Build 0)  -->
<!DOCTYPE svg PUBLIC "-//W3C//DTD SVG 1.1//EN" "http://www.w3.org/Graphics/SVG/1.1/DTD/svg11.dtd">
<svg version="1.1" id="Layer_1" xmlns="http://www.w3.org/2000/svg" xmlns:xlink="http://www.w3.org/1999/xlink" x="0px" y="0px"
	 width="30px" height="30px" viewBox="56.75 0 30 30" enable-background="new 56.75 0 30 30" xml:space="preserve">
<g>
	<g>
		<path fill="#25AAE1" d="M82.355,4.392c-5.859-5.857-15.357-5.855-21.214,0.003s-5.855,15.357,0.003,21.213
			s15.357,5.855,21.213-0.003c2.813-2.814,4.393-6.63,4.392-10.609C86.749,11.019,85.168,7.204,82.355,4.392z M79.467,20.895
			c0,0.001-0.001,0.002-0.002,0.002v-0.005l-0.76,0.755c-0.982,0.996-2.414,1.405-3.775,1.08c-1.371-0.367-2.674-0.951-3.859-1.729
			c-1.102-0.704-2.124-1.528-3.045-2.455c-0.848-0.843-1.61-1.767-2.275-2.761c-0.727-1.068-1.303-2.232-1.71-3.459
			c-0.467-1.441-0.08-3.022,1-4.085l0.89-0.89c0.248-0.249,0.65-0.249,0.898-0.002c0,0.001,0.001,0.001,0.002,0.002l2.81,2.81
			c0.249,0.248,0.249,0.649,0.002,0.898c-0.001,0.001-0.001,0.001-0.002,0.002l-1.65,1.65c-0.473,0.468-0.533,1.212-0.14,1.75
			c0.597,0.819,1.257,1.59,1.975,2.305c0.8,0.804,1.67,1.535,2.6,2.186c0.537,0.374,1.266,0.311,1.729-0.15l1.596-1.62
			c0.248-0.249,0.649-0.249,0.898-0.002c0,0.001,0.001,0.001,0.002,0.002l2.814,2.82C79.713,20.244,79.715,20.646,79.467,20.895z"/>
	</g>
</g>
</svg>
