<?xml version="1.0"?>
<svg xmlns="http://www.w3.org/2000/svg" xmlns:xlink="http://www.w3.org/1999/xlink" xmlns:svgjs="http://svgjs.com/svgjs" version="1.1" width="512" height="512" x="0" y="0" viewBox="0 0 512 512" style="enable-background:new 0 0 512 512" xml:space="preserve" class=""><g><g xmlns="http://www.w3.org/2000/svg"><path d="M297.6,134.4a32,32,0,1,0,0,45.256l.017-.02A32.037,32.037,0,0,0,297.6,134.4Zm-33.941,33.942a16,16,0,1,1,26.753-7.189l-9.782-9.782a8,8,0,0,0-11.315,11.315l9.783,9.782A16,16,0,0,1,263.657,168.343Z" fill="#ffffff" data-original="#000000" style="" class=""/><path d="M235.372,185.313l-5.656,5.657a8,8,0,0,0,11.314,11.314l5.657-5.656a8,8,0,0,0-11.315-11.315Z" fill="#ffffff" data-original="#000000" style="" class=""/><path d="M464,96H379.19l5.53-39.69a8.008,8.008,0,0,0-9.03-9.03L301.25,57.65c-.16.02-.32.05-.48.08a23.906,23.906,0,0,0-12.25,6.56l-7.88,7.88c-.01,0-.01,0-.01.01s-.01,0-.01.01L256.76,96.04A6.339,6.339,0,0,0,256,96H48A40.04,40.04,0,0,0,8,136V360a40.04,40.04,0,0,0,40,40H204.68l-11.33,32H160a8,8,0,0,0-8,8v24a8,8,0,0,0,8,8H352a8,8,0,0,0,8-8V440a8,8,0,0,0-8-8H317.65l-11.33-32H464a40.04,40.04,0,0,0,40-40V136A40.04,40.04,0,0,0,464,96ZM299.83,75.6a7.956,7.956,0,0,1,3.9-2.14l63.68-8.87-8.87,63.68a7.956,7.956,0,0,1-2.14,3.9l-2.23,2.23L297.6,77.83ZM286.28,89.15l56.57,56.57-62.21,62.21L235.37,253.2l-.01.01-5.64,5.64L218.4,247.54l16.97-16.97a8,8,0,0,0,0-11.32l-22.62-22.62a8,8,0,0,0-11.32,0L184.46,213.6l-11.31-11.32,5.64-5.63a.035.035,0,0,1,.01-.02ZM293.37,232l-29.96,55.2-12.73-26.69,35.6-35.6Zm-91.92,9.86c-.01.01-.01.02-.02.02s-.01.02-.02.02l-11.29,11.3L178.8,241.88l11.3-11.29c0-.01.01-.01.02-.02s.01-.01.02-.02l16.95-16.95,11.31,11.31Zm-29.88-60.62-26.32-13.16,54.73-29.47,7.11,7.1ZM344,448v8H168v-8ZM210.32,432l11.33-32h67.7l11.33,32ZM488,360a24.032,24.032,0,0,1-24,24H48a24.032,24.032,0,0,1-24-24v-8H488Zm0-24H24V136a24.032,24.032,0,0,1,24-24H240.8l-22.4,22.4-11.31-11.31a7.991,7.991,0,0,0-9.45-1.39L124.1,161.3a8,8,0,0,0,.21,14.2l35.33,17.66-3.46,3.47a7.979,7.979,0,0,0,0,11.31l16.97,16.97-11.32,11.31a8.015,8.015,0,0,0,0,11.32l22.63,22.63a8.015,8.015,0,0,0,11.32,0l11.31-11.32,16.97,16.97a7.979,7.979,0,0,0,11.31,0l3.31-3.3,17.05,35.74a8,8,0,0,0,7.01,4.55h.21a8,8,0,0,0,7.03-4.18l40.31-74.25a7.991,7.991,0,0,0-1.38-9.47L297.6,213.6l62.21-62.22c.01,0,.01,0,.01-.01s.01,0,.01-.01l7.88-7.88a23.906,23.906,0,0,0,6.56-12.25c.03-.16.06-.32.08-.48L376.96,112H464a24.032,24.032,0,0,1,24,24Z" fill="#ffffff" data-original="#000000" style="" class=""/><path d="M104,360H48a8,8,0,0,0,0,16h56a8,8,0,0,0,0-16Z" fill="#ffffff" data-original="#000000" style="" class=""/><path d="M136,360h-8a8,8,0,0,0,0,16h8a8,8,0,0,0,0-16Z" fill="#ffffff" data-original="#000000" style="" class=""/><path d="M126.343,313.657a8,8,0,0,0,11.314,0l36-36a8,8,0,1,0-11.314-11.314l-36,36A8,8,0,0,0,126.343,313.657Z" fill="#ffffff" data-original="#000000" style="" class=""/><path d="M128,248a7.974,7.974,0,0,0,5.657-2.343l16-16a8,8,0,0,0-11.314-11.314l-16,16A8,8,0,0,0,128,248Z" fill="#ffffff" data-original="#000000" style="" class=""/><path d="M104,272a7.974,7.974,0,0,0,5.657-2.343l8-8a8,8,0,0,0-11.314-11.314l-8,8A8,8,0,0,0,104,272Z" fill="#ffffff" data-original="#000000" style="" class=""/><path d="M170.343,317.657a8,8,0,0,0,11.314,0l24-24a8,8,0,1,0-11.314-11.314l-24,24A8,8,0,0,0,170.343,317.657Z" fill="#ffffff" data-original="#000000" style="" class=""/></g></g></svg>
