<svg height="512pt" viewBox="0 0 512 512" width="512pt" xmlns="http://www.w3.org/2000/svg"><path d="m512 298.695312v-85.390624l-71.324219-11.800782c-3.835937-13.015625-9.058593-25.609375-15.566406-37.542968l42.101563-58.789063-60.382813-60.382813-58.789063 42.101563c-11.9375-6.507813-24.527343-11.730469-37.546874-15.566406l-11.796876-71.324219h-85.390624l-11.796876 71.324219c-13.019531 3.835937-25.613281 9.058593-37.546874 15.566406l-58.789063-42.101563-60.382813 60.382813 42.101563 58.789063c-6.507813 11.9375-11.730469 24.527343-15.566406 37.546874l-71.324219 11.796876v85.390624l71.324219 11.800782c3.835937 13.015625 9.058593 25.609375 15.566406 37.542968l-42.101563 58.792969 60.382813 60.378907 58.789063-42.101563c11.933593 6.507813 24.527343 11.730469 37.542968 15.566406l11.800782 71.324219h85.390624l11.796876-71.324219c13.019531-3.835937 25.609374-9.058593 37.546874-15.566406l58.789063 42.101563 60.382813-60.378907-42.101563-58.792969c6.507813-11.933593 11.730469-24.527343 15.566406-37.542968zm-84.5 3.242188c-4 14.972656-9.976562 29.386719-17.757812 42.832031l-2.425782 4.191407 40.289063 56.257812-42.386719 42.386719-56.257812-40.285157-4.191407 2.421876c-13.449219 7.785156-27.859375 13.757812-42.832031 17.757812l-4.675781 1.25-11.289063 68.25h-59.945312l-11.289063-68.253906-4.675781-1.246094c-14.972656-4-29.382812-9.976562-42.832031-17.757812l-4.1875-2.421876-56.261719 40.285157-42.386719-42.386719 40.289063-56.257812-2.421875-4.191407c-7.785157-13.449219-13.757813-27.859375-17.757813-42.832031l-1.25-4.675781-68.253906-11.289063v-59.945312l68.253906-11.289063 1.246094-4.675781c4-14.972656 9.976562-29.382812 17.757812-42.832031l2.421876-4.191407-40.285157-56.257812 42.386719-42.386719 56.257812 40.289063 4.191407-2.425782c13.445312-7.78125 27.855469-13.753906 42.832031-17.757812l4.671875-1.246094 11.292969-68.253906h59.945312l11.292969 68.253906 4.671875 1.246094c14.972656 4 29.386719 9.976562 42.832031 17.757812l4.191407 2.425782 56.257812-40.289063 42.386719 42.386719-40.285157 56.261719 2.421876 4.1875c7.78125 13.449219 13.757812 27.859375 17.757812 42.832031l1.25 4.675781 68.25 11.289063v59.945312l-68.253906 11.289063zm0 0"/><path d="m256 101.207031c-85.351562 0-154.792969 69.441407-154.792969 154.792969s69.441407 154.792969 154.792969 154.792969 154.792969-69.441407 154.792969-154.792969-69.441407-154.792969-154.792969-154.792969zm0 294.585938c-77.082031 0-139.792969-62.710938-139.792969-139.792969s62.710938-139.792969 139.792969-139.792969 139.792969 62.710938 139.792969 139.792969-62.710938 139.792969-139.792969 139.792969zm0 0"/><path d="m199.742188 184.003906h43.144531v15h-43.144531zm0 0"/><path d="m265.46875 152.410156h-88.3125v207.179688h157.6875v-139.335938l-69.375-33.460937zm-15 192.179688h-58.3125v-177.179688h58.3125zm69.375-114.917969v114.917969h-54.375v-141.144532zm0 0"/><path d="m273.878906 237.164062h15v96.277344h-15zm0 0"/><path d="m199.742188 207.449219h43.144531v15h-43.144531zm0 0"/><path d="m199.742188 230.894531h43.144531v15h-43.144531zm0 0"/><path d="m199.742188 254.339844h43.144531v15h-43.144531zm0 0"/><path d="m199.742188 277.785156h43.144531v15h-43.144531zm0 0"/><path d="m157.527344 223.816406c-6.695313 20.5-6.957032 43.0625 0 64.367188l14.257812-4.65625c-5.726562-17.542969-5.945312-36.84375 0-55.054688zm0 0"/><path d="m333.128906 212.394531 13.050782-7.398437c-14.238282-25.128906-38.480469-43.300782-66.5-49.855469l-3.417969 14.605469c23.957031 5.605468 44.683593 21.148437 56.867187 42.648437zm0 0"/><path d="m340.214844 228.449219c5.769531 17.648437 5.890625 37.011719 0 55.058593l14.257812 4.65625c6.917969-21.1875 6.722656-43.808593 0-64.378906zm0 0"/><path d="m357.960938 336.773438-11.746094-9.328126c14.03125-17.671874 22.476562-38.941406 24.421875-61.511718l14.945312 1.289062c-2.199219 25.515625-11.753906 49.566406-27.621093 69.550782zm28.101562-80.144532-15-.070312.003906-.585938c0-4.484375-.265625-9.015625-.789062-13.472656l14.898437-1.75c.589844 5.035156.890625 10.15625.890625 15.222656zm-17.257812-23.398437c-.921876-4.585938-2.136719-9.164063-3.609376-13.605469l14.234376-4.726562c1.667968 5.019531 3.039062 10.191406 4.082031 15.375zm0 0"/><path d="m311.433594 333.441406h-15v-46.277344h15zm0-56.277344h-15v-15h15zm0-25h-15v-15h15zm0 0"/></svg>